<?xml version="1.0" standalone="no"?>
<!DOCTYPE svg PUBLIC "-//W3C//DTD SVG 20010904//EN"
 "http://www.w3.org/TR/2001/REC-SVG-20010904/DTD/svg10.dtd">
<svg version="1.0" xmlns="http://www.w3.org/2000/svg"
 width="512.000000pt" height="512.000000pt" viewBox="0 0 512.000000 512.000000"
 preserveAspectRatio="xMidYMid meet">
<metadata>
Created by potrace 1.14, written by Peter Selinger 2001-2017
</metadata>
<g transform="translate(0.000000,512.000000) scale(0.100000,-0.100000)"
fill="#000000" stroke="none">
<path d="M2379 5116 c-2 -2 -38 -6 -79 -10 -64 -6 -213 -30 -315 -51 -58 -12
-202 -55 -291 -86 -398 -140 -788 -407 -1064 -729 -64 -74 -76 -89 -143 -180
-208 -280 -367 -643 -436 -995 -40 -200 -46 -267 -45 -515 0 -183 3 -241 19
-345 3 -16 7 -43 9 -60 31 -220 147 -571 253 -763 87 -159 185 -311 259 -402
241 -296 506 -518 819 -684 228 -122 538 -225 781 -261 22 -4 50 -8 64 -11
144 -26 531 -26 708 1 75 12 90 14 142 25 30 6 66 13 80 16 111 21 368 110
505 175 646 306 1137 865 1354 1543 29 89 75 274 86 347 22 142 30 242 30 424
0 219 -10 337 -45 505 -6 30 -14 66 -16 80 -3 14 -16 64 -30 112 -180 644
-609 1192 -1196 1531 -275 159 -583 265 -908 312 -19 3 -53 7 -75 11 -46 6
-460 16 -466 10z m39 -715 l-1 -418 -478 -1 c-349 -1 -479 2 -479 10 0 6 18
42 40 80 22 39 40 72 40 74 0 2 21 34 47 72 192 276 386 448 615 543 69 29
164 56 199 58 15 1 17 -35 17 -418z m383 400 c269 -69 542 -291 741 -601 30
-47 72 -115 92 -151 l36 -67 -483 0 -484 0 -1 419 c0 324 3 419 13 419 6 0 45
-9 86 -19z m1037 -360 c149 -101 405 -334 470 -427 l22 -31 -174 -1 -174 -1
-57 112 c-74 145 -132 240 -220 357 -38 52 -76 103 -83 112 -14 19 122 -57
216 -121z m-2338 120 c0 -5 -3 -11 -7 -13 -23 -10 -172 -223 -232 -331 -17
-31 -52 -98 -78 -147 l-46 -90 -173 1 -174 1 12 22 c24 45 297 305 398 378
102 74 278 186 293 187 4 1 7 -3 7 -8z m-470 -865 c0 -2 -9 -32 -20 -67 -29
-96 -76 -293 -94 -394 -25 -144 -25 -142 -42 -300 -1 -16 -6 -73 -9 -125 -4
-52 -8 -98 -11 -101 -2 -4 -130 -7 -283 -7 l-280 0 4 41 c12 160 52 362 104
523 23 72 98 257 121 299 9 17 29 53 44 81 l28 52 219 1 c120 1 219 0 219 -3z
m1385 -496 l0 -495 -635 0 -635 0 1 35 c1 57 14 232 18 239 2 3 6 33 10 66 3
33 8 69 10 80 2 11 7 38 11 60 4 22 9 51 11 65 18 97 71 297 105 392 l21 57
541 -2 542 -2 0 -495z m1391 455 c84 -237 156 -620 168 -892 l3 -62 -636 2
-636 2 -2 485 c-1 267 0 490 2 496 3 9 146 12 545 10 l542 -1 14 -40z m770
-45 c96 -186 183 -432 210 -590 3 -14 9 -47 14 -75 9 -48 13 -81 25 -191 l5
-51 -279 -2 c-154 -1 -282 2 -284 6 -3 4 -8 57 -12 117 -4 60 -8 116 -10 125
-1 9 -6 43 -9 76 -9 83 -33 226 -52 310 -9 39 -18 80 -20 92 -2 12 -20 77 -39
143 -19 67 -35 123 -35 125 0 1 99 2 221 1 l221 -1 44 -85z m-3715 -1238 c4
-227 58 -557 134 -821 19 -67 35 -124 35 -127 0 -2 -99 -3 -221 -1 l-220 2
-38 70 c-100 187 -199 474 -225 650 -4 22 -11 65 -16 95 -5 30 -12 83 -15 116
l-6 61 286 1 285 0 1 -46z m1556 -452 l0 -499 -542 0 -542 0 -12 25 c-35 77
-122 436 -145 594 -10 75 -26 238 -30 307 l-3 71 637 0 638 0 -1 -498z m1556
430 c-2 -64 -19 -237 -28 -295 -3 -16 -7 -43 -10 -60 -2 -16 -7 -48 -10 -70
-8 -50 -71 -313 -91 -374 -8 -25 -22 -65 -30 -87 l-15 -42 -543 0 -544 0 1
498 0 498 636 -1 636 -2 -2 -65z m851 40 c-4 -97 -27 -255 -50 -345 -9 -33
-17 -67 -19 -76 -16 -80 -96 -292 -157 -415 -76 -151 -39 -134 -290 -133 -120
1 -218 5 -218 10 0 4 5 20 11 36 16 42 78 287 94 373 37 192 61 396 64 537 l1
43 283 -3 282 -2 -1 -25z m-3662 -1297 c43 -98 215 -391 248 -423 5 -5 70 -88
93 -118 11 -13 -96 44 -143 78 -15 11 -31 20 -35 20 -3 0 -59 39 -123 87 -110
81 -376 334 -400 380 -11 20 -9 20 164 22 l175 2 21 -48z m1254 -371 c2 -332
-1 -414 -11 -418 -23 -9 -166 36 -262 82 -246 119 -482 364 -652 676 l-41 77
482 -2 483 -2 1 -413z m1232 375 c-47 -93 -140 -234 -230 -351 -100 -130 -295
-288 -441 -359 -84 -41 -221 -87 -259 -87 -14 0 -16 44 -16 413 0 226 2 415 4
418 2 4 220 7 484 7 l479 0 -21 -41z m671 20 c-24 -43 -289 -298 -385 -369
-105 -78 -303 -202 -311 -195 -2 2 16 29 40 58 89 109 190 272 269 431 l47 96
175 0 c173 -1 175 -1 165 -21z"/>
</g>
</svg>
